<svg width="83" height="83" viewBox="0 0 83 83" fill="none" xmlns="http://www.w3.org/2000/svg">
<path d="M63.9243 13.0393L76.2553 13.0273C78.5015 13.0252 80.3106 14.8644 80.3127 17.0768L80.3594 65.2126C80.3615 67.459 78.5561 69.268 76.3099 69.2702L6.74101 69.3378C4.49466 69.3399 2.68568 67.5345 2.68341 65.2882L2.63672 17.1524C2.63461 14.9397 4.44003 13.0971 6.68638 13.0949L18.683 13.0833" fill="#28D5CB"/>
<path d="M2.67676 57.9632L2.68389 65.2878C2.686 67.534 4.49498 69.3396 6.74133 69.3373L76.3102 69.2697C78.5564 69.2676 80.362 67.4585 80.3597 65.2123L80.3526 57.8877L2.67676 57.9632Z" fill="#28D5CB"/>
<path d="M49.0873 69.2959L55.5841 80.455L27.4912 80.4823L33.9663 69.3107L49.0873 69.2959Z" fill="#28D5CB"/>
<path d="M63.517 4.40224L63.5682 57.215L18.726 57.2587L18.6748 4.44601C18.6738 3.40122 19.5199 2.55355 20.5647 2.55258L61.6237 2.5127C62.6682 2.51156 63.516 3.35761 63.517 4.40224Z" fill="#28D5CB"/>
<path d="M41.5216 64.681C42.262 64.681 42.8621 64.0808 42.8621 63.3405C42.8621 62.6002 42.262 62 41.5216 62C40.7813 62 40.1812 62.6002 40.1812 63.3405C40.1812 64.0808 40.7813 64.681 41.5216 64.681Z" fill="black"/>
<path d="M61.6217 1.25586L20.5629 1.29574C18.8271 1.29736 17.4156 2.71177 17.4172 4.44747L17.4243 11.8215L6.68912 11.8319C3.7564 11.8348 1.37355 14.2222 1.37647 17.1536L1.42332 65.2858C1.42624 68.2185 3.81362 70.6014 6.74634 70.5985L31.7819 70.5742L26.767 79.2261L23.0557 79.2297C22.3609 79.2303 21.7992 79.7931 21.7998 80.4879C21.8005 81.1827 22.3633 81.7445 23.0581 81.7438C32.2906 81.7349 50.7605 81.7169 60.0192 81.708C60.714 81.7073 61.2757 81.1445 61.2751 80.4497C61.2744 79.7549 60.7116 79.1932 60.0168 79.1938L56.3054 79.1974L51.2737 70.5552L76.3104 70.5309C79.2431 70.5279 81.626 68.1406 81.623 65.2078C81.6185 60.5962 81.606 47.6804 81.6026 44.2408C81.602 43.546 81.0391 42.9843 80.3443 42.9849C79.6495 42.9856 79.0878 43.5484 79.0885 44.2432L79.0998 55.9433L64.8232 55.9572L64.7826 14.2896L76.2556 14.2784C77.8011 14.277 79.0606 15.5327 79.062 17.0782L79.0815 37.041C79.0821 37.7358 79.645 38.2975 80.3398 38.2969C81.0346 38.2962 81.5963 37.7334 81.5956 37.0386L81.5762 17.0758C81.5733 14.1444 79.1859 11.7615 76.2532 11.7643L64.7802 11.7755L64.7731 4.40143C64.7718 2.66573 63.3575 1.25424 61.6217 1.25586ZM6.69171 14.346L17.4269 14.3357L17.4674 56.0033L3.92856 56.0164L3.89078 17.1513C3.88916 15.6058 5.14632 14.3477 6.69171 14.346ZM53.399 79.2003L29.6736 79.2233L34.6882 70.5714L48.3678 70.5581L53.399 79.2003ZM79.1092 65.2104C79.1107 66.756 77.8537 68.0154 76.3081 68.0169C30.9919 68.0608 51.5034 68.0329 6.74391 68.0845C5.19836 68.0859 3.93893 66.8289 3.93747 65.2834L3.93099 58.5306C32.1524 58.5032 50.979 58.4848 79.1029 58.4576L79.1092 65.2104ZM19.9814 56.0008L19.9313 4.44504C19.931 4.09521 20.2155 3.81006 20.5654 3.80973L61.6241 3.76985C61.9739 3.76953 62.2591 4.05403 62.2594 4.40386L62.3095 55.9597L19.9814 56.0008Z" fill="black"/>
<path d="M26.2905 29.0337L26.2921 30.7658C26.2928 31.4606 26.8556 32.0223 27.5504 32.0217C28.2452 32.021 28.807 31.4582 28.8063 30.7634L28.8047 29.0313C28.804 28.3365 28.2412 27.7747 27.5464 27.7754C26.8516 27.776 26.2899 28.3389 26.2905 29.0337Z" fill="black"/>
<path d="M31.5161 25.9165L31.5208 30.833C31.5215 31.5278 32.0843 32.0895 32.7791 32.0888C33.4739 32.0882 34.0356 31.5253 34.035 30.8305L34.0303 25.9141C34.0296 25.2193 33.4668 24.6576 32.772 24.6582C32.0772 24.6589 31.5155 25.2217 31.5161 25.9165Z" fill="black"/>
<path d="M36.7407 23.4429L36.748 30.9004C36.7487 31.5952 37.3115 32.1569 38.0063 32.1562C38.7011 32.1556 39.2628 31.5928 39.2622 30.898L39.2549 23.4404C39.2542 22.7456 38.6914 22.1839 37.9966 22.1846C37.3018 22.1852 36.7401 22.7481 36.7407 23.4429Z" fill="black"/>
<path d="M41.9722 26.5015L41.9765 30.9674C41.9772 31.6622 42.54 32.2239 43.2348 32.2233C43.9296 32.2226 44.4913 31.6598 44.4907 30.965L44.4863 26.499C44.4857 25.8042 43.9228 25.2425 43.228 25.2432C42.5332 25.2438 41.9715 25.8067 41.9722 26.5015Z" fill="black"/>
<path d="M47.1958 23.4326L47.2028 30.6004C47.2034 31.2952 47.7663 31.8569 48.4611 31.8563C49.1559 31.8556 49.7176 31.2928 49.7169 30.598L49.71 23.4302C49.7093 22.7354 49.1465 22.1737 48.4517 22.1743C47.7569 22.175 47.1952 22.7378 47.1958 23.4326Z" fill="black"/>
<path d="M52.4194 19.9189L52.4298 30.6676C52.4305 31.3624 52.9933 31.9241 53.6881 31.9235C54.3829 31.9228 54.9446 31.36 54.944 30.6652L54.9336 19.9165C54.9329 19.2217 54.3701 18.66 53.6753 18.6606C52.9805 18.6615 52.4188 19.2241 52.4194 19.9189Z" fill="black"/>
<path d="M25.2181 26.5914L35.7368 18.6192C36.0643 18.3721 36.532 18.3569 36.8749 18.5886L41.5869 21.745C42.8509 22.5907 44.5546 22.5166 45.7421 21.5495L55.9615 13.1177L55.4836 15.9544C55.3688 16.6395 55.831 17.2873 56.5149 17.4032C57.2364 17.5144 57.8523 17.0312 57.9637 16.3719L58.9999 10.2133C59.065 9.82395 58.9183 9.50378 58.7301 9.20582C58.7298 9.2055 58.7295 9.20534 58.7291 9.20501C58.7291 9.20485 58.729 9.20469 58.729 9.20453C58.4887 8.91257 58.1071 8.75419 57.7931 8.74754L51.5508 8.58057C51.5398 8.58057 51.5274 8.58057 51.5151 8.58057C50.8375 8.58121 50.2795 9.12185 50.2605 9.80449C50.2429 10.4982 50.7897 11.0758 51.4845 11.0947L54.371 11.1717L44.1493 19.6053C43.8195 19.8757 43.3419 19.8945 42.9869 19.6567L38.276 16.5016C37.0389 15.6704 35.4087 15.715 34.2189 16.6147L23.6989 24.5869C23.1456 25.0061 23.0372 25.7954 23.4564 26.3487C23.8784 26.9038 24.6677 27.0087 25.2181 26.5914Z" fill="black"/>
<path d="M58.6363 35.3804L24.6963 35.4133C24.0015 35.4139 23.4398 35.9768 23.4404 36.6716C23.4411 37.3664 24.0039 37.9281 24.6987 37.9274L58.6388 37.8945C59.3336 37.8939 59.8953 37.331 59.8946 36.6362C59.894 35.9413 59.3311 35.3797 58.6363 35.3804Z" fill="black"/>
<path d="M58.6412 40.4087L24.7012 40.4416C24.0064 40.4422 23.4447 41.0051 23.4453 41.6999C23.446 42.3947 24.0088 42.9564 24.7036 42.9558L58.6436 42.9228C59.3384 42.9222 59.9001 42.3594 59.8995 41.6646C59.8988 40.9698 59.336 40.408 58.6412 40.4087Z" fill="black"/>
<path d="M58.6461 45.437L24.7061 45.4699C24.0113 45.4706 23.4495 46.0334 23.4502 46.7282C23.4508 47.423 24.0137 47.9847 24.7085 47.9841L58.6485 47.9512C59.3433 47.9505 59.905 47.3877 59.9044 46.6929C59.9037 45.9981 59.3409 45.4364 58.6461 45.437Z" fill="black"/>
<path d="M58.651 50.4653L24.7109 50.4982C24.0161 50.4989 23.4544 51.0617 23.4551 51.7565C23.4557 52.4513 24.0186 53.013 24.7134 53.0124L58.6534 52.9795C59.3482 52.9788 59.9099 52.416 59.9093 51.7212C59.9086 51.0264 59.3458 50.4647 58.651 50.4653Z" fill="black"/>
</svg>
