<svg width="83" height="83" viewBox="0 0 83 83" fill="none" xmlns="http://www.w3.org/2000/svg">
<mask id="mask0_11_522" style="mask-type:luminance" maskUnits="userSpaceOnUse" x="0" y="0" width="83" height="83">
<path d="M0 7.62939e-06H83V83H0V7.62939e-06Z" fill="white"/>
</mask>
<g mask="url(#mask0_11_522)">
<path d="M23.5811 78.6165V37.5397C23.5811 36.4192 24.4895 35.5109 25.61 35.5109H37.0324C38.1529 35.5109 39.0612 36.4192 39.0612 37.5397V78.6165H23.5811Z" fill="#92A1E4"/>
<path d="M3.21826 78.6165V24.7172C3.21826 23.5967 4.12672 22.6882 5.24722 22.6882H16.6696C17.7901 22.6882 18.6984 23.5967 18.6984 24.7172V78.6165H3.21826Z" fill="#92A1E4"/>
<path d="M64.3066 78.6165V63.1849C64.3066 62.0644 65.2151 61.156 66.3356 61.156H77.7578C78.8785 61.156 79.7868 62.0644 79.7868 63.1849V78.6165H64.3066Z" fill="#92A1E4"/>
<path d="M43.9438 78.6165V50.3624C43.9438 49.2418 44.8523 48.3333 45.9728 48.3333H57.3952C58.5157 48.3333 59.424 49.2418 59.424 50.3624V78.6165H43.9438Z" fill="#92A1E4"/>
<path d="M73.2919 48.1835L66.3063 48.3333C65.69 48.3466 65.3124 47.6623 65.6522 47.1478L66.9252 45.2205L9.71166 7.437C8.94472 6.93041 8.73349 5.89793 9.24008 5.13083C9.74667 4.36373 10.7791 4.15266 11.5462 4.65926L68.7597 42.4424L70.0327 40.5146C70.3723 40.0004 71.15 40.079 71.3797 40.6509L73.9848 47.1343C74.1842 47.6301 73.8262 48.1722 73.2919 48.1835Z" fill="#E4EAF8"/>
<path d="M30.4733 35.5109H25.61C24.4895 35.5109 23.5811 36.4194 23.5811 37.5399V78.6165H28.4443V37.5399C28.4443 36.4194 29.3528 35.5109 30.4733 35.5109Z" fill="#92A1E4"/>
<path d="M10.1105 22.6882H5.24722C4.12672 22.6882 3.21826 23.5967 3.21826 24.7172V78.6165H8.08154V24.7172C8.08154 23.5967 8.99 22.6882 10.1105 22.6882Z" fill="#92A1E4"/>
<path d="M71.1989 61.156H66.3356C65.2151 61.156 64.3066 62.0644 64.3066 63.1849V78.6165H69.1699V63.1849C69.1699 62.0644 70.0784 61.156 71.1989 61.156Z" fill="#92A1E4"/>
<path d="M50.8356 48.3333H45.9723C44.8518 48.3333 43.9434 49.2418 43.9434 50.3624V78.6165H48.8066V50.3624C48.8066 49.2418 49.7151 48.3333 50.8356 48.3333Z" fill="#92A1E4"/>
<path d="M81.7816 78.6167H1.21826" stroke="black" stroke-width="1.61133" stroke-miterlimit="10" stroke-linecap="round" stroke-linejoin="round"/>
<path d="M23.5786 78.6165V37.5397C23.5786 36.4192 24.4871 35.5109 25.6076 35.5109H37.03C38.1505 35.5109 39.0588 36.4192 39.0588 37.5397V78.6165H23.5786Z" stroke="black" stroke-width="1.61133" stroke-miterlimit="10" stroke-linecap="round" stroke-linejoin="round"/>
<path d="M3.21533 78.6165V24.7172C3.21533 23.5967 4.12379 22.6882 5.24429 22.6882H16.6667C17.7872 22.6882 18.6955 23.5967 18.6955 24.7172V78.6165H3.21533Z" stroke="black" stroke-width="1.61133" stroke-miterlimit="10" stroke-linecap="round" stroke-linejoin="round"/>
<path d="M73.2891 48.1835L66.3034 48.3333C65.6872 48.3466 65.3095 47.6623 65.6493 47.1478L66.9223 45.2205L9.70873 7.437C8.94179 6.93041 8.73056 5.89793 9.23715 5.13083C9.74374 4.36373 10.7762 4.15267 11.5433 4.65926L68.7567 42.4424L70.0298 40.5146C70.3694 40.0004 71.147 40.079 71.3767 40.6509L73.9818 47.1343C74.1812 47.6301 73.8233 48.1722 73.2891 48.1835Z" stroke="black" stroke-width="1.61133" stroke-miterlimit="10" stroke-linecap="round" stroke-linejoin="round"/>
<path d="M48.8441 48.3333H45.9699C44.8492 48.3333 43.9409 49.2418 43.9409 50.3624V78.6165H59.4211V50.3624C59.4211 49.2418 58.5128 48.3333 57.3921 48.3333H54.5179" stroke="black" stroke-width="1.61133" stroke-miterlimit="10" stroke-linecap="round" stroke-linejoin="round"/>
<path d="M79.7839 67.0493V63.1848C79.7839 62.0643 78.8754 61.156 77.7549 61.156H66.3325C65.212 61.156 64.3037 62.0643 64.3037 63.1848V78.6165H79.7839V72.7231" stroke="black" stroke-width="1.61133" stroke-miterlimit="10" stroke-linecap="round" stroke-linejoin="round"/>
</g>
</svg>
