<svg width="55" height="55" viewBox="0 0 55 55" fill="none" xmlns="http://www.w3.org/2000/svg">
<path d="M29.2596 46.34C28.368 46.34 27.4642 46.0254 26.61 45.4119C26.5601 45.3759 26.5136 45.3508 26.4814 45.3361C23.4999 45.9284 22.2985 45.4405 21.0956 43.0094C19.0026 42.8737 17.6598 41.753 17.1879 39.7417C15.4955 39.3576 14.389 38.2507 13.9608 36.5196C12.3825 36.1215 11.3431 35.1128 10.7138 33.3836C10.5841 33.027 10.1014 32.6468 9.63483 32.279C9.60983 32.2594 9.58483 32.2395 9.55973 32.2198C9.12023 32.8634 8.76873 33.2477 8.24613 33.4248C7.54263 33.6632 6.85603 33.4148 5.60973 32.9644C5.33213 32.8639 5.05593 32.7607 4.77983 32.6574C4.28163 32.4712 3.76633 32.2785 3.26023 32.1101C2.18003 31.7491 1.68833 30.9328 1.87453 29.8111C2.26473 27.4611 2.65343 25.1111 3.04213 22.7611C3.65613 19.0488 4.29103 15.2102 4.92163 11.4352C5.05803 10.6184 5.39573 10.0712 5.92533 9.80886C6.46233 9.54276 7.11933 9.61106 7.87813 10.0115C9.50103 10.8688 11.1444 11.75 12.7336 12.6021C13.341 12.9278 13.9484 13.2535 14.5562 13.5787C15.2601 13.9555 15.8678 14.2808 16.0923 14.9038C16.2856 15.44 16.1281 15.9816 15.8842 16.6342C16.8759 16.9263 17.8383 16.9039 18.8074 16.569C21.5628 15.6179 24.2534 15.5972 26.8108 16.5062C29.4521 15.3237 32.159 15.1768 34.8593 16.0718C36.1778 16.5083 37.3742 16.7387 38.5144 16.7755C38.7111 16.7455 38.9071 16.7026 39.1011 16.647C38.84 15.9628 38.7155 15.4396 38.9165 14.913C39.1719 14.2441 39.8337 13.8963 40.8355 13.37C42.006 12.7562 43.1915 12.1197 44.3378 11.5041C45.2357 11.022 46.1643 10.5234 47.0813 10.0381C47.3747 9.88226 48.2703 9.40686 49.0773 9.80536C49.8742 10.1988 50.0356 11.1649 50.0886 11.4824C50.6237 14.6843 51.1625 17.9403 51.6836 21.089C52.1621 23.9799 52.6405 26.8707 53.1226 29.7605C53.3146 30.9151 52.8096 31.7562 51.7007 32.1293C50.9482 32.3817 50.1858 32.6611 49.4485 32.9314C49.1097 33.0555 48.7711 33.1796 48.4317 33.3018C47.179 33.7539 46.4565 33.8555 45.6737 32.7729C45.273 32.9827 44.873 33.1923 44.4768 33.4004C44.466 33.4064 44.455 33.4121 44.444 33.4176L44.4162 33.4322C44.4486 36.3653 43.6474 37.5913 41.236 38.2687C40.7409 40.2493 39.4151 41.3857 37.3711 41.5743C37.3688 41.5778 37.3668 41.5811 37.3653 41.584C36.4159 43.6137 35.0184 44.4269 32.8424 44.2137C32.809 44.2269 32.7638 44.2531 32.74 44.2737C32.0257 45.3729 31.0666 46.0638 29.9635 46.2738C29.7307 46.318 29.4954 46.34 29.2596 46.34ZM26.5781 45.3166C26.5773 45.3168 26.5768 45.3169 26.576 45.3171C26.5767 45.3169 26.5774 45.3168 26.5781 45.3166ZM26.4949 43.7253C26.9343 43.7253 27.3303 43.9583 27.5453 44.1138C28.2585 44.6259 28.9915 44.8297 29.6644 44.7019C30.3333 44.5746 30.9363 44.12 31.4078 43.3873C31.7166 42.9048 32.4095 42.5585 32.954 42.6168C34.4941 42.7796 35.2419 42.3476 35.917 40.9042C36.0564 40.6055 36.4807 40.0292 37.0863 39.9918C38.6664 39.892 39.493 39.1189 39.7655 37.4855C39.8187 37.1666 40.0587 36.911 40.3737 36.8378C42.4183 36.3634 42.9177 35.8605 42.8042 32.9857C42.7987 32.8454 42.8301 32.7093 42.8917 32.5892C42.8363 32.5297 42.781 32.4702 42.7255 32.4106C41.9812 31.6111 41.2114 30.7843 40.4319 29.9908C39.417 28.9579 38.3716 27.9169 37.3608 26.9101C36.4607 26.0137 35.5299 25.0867 34.6212 24.1662C33.1394 22.6647 31.4325 22.2848 29.4031 23.0051C28.2116 23.428 27.0037 23.8766 25.8356 24.3104C25.0932 24.5861 24.3254 24.8712 23.5676 25.1477C20.8772 26.1293 19.6667 24.9998 19.1251 23.8792C18.7605 23.1269 18.2118 21.2085 20.9918 19.6638C21.4359 19.4173 21.879 19.1696 22.322 18.9219C23.107 18.483 23.9095 18.0343 24.7178 17.5927C22.9811 17.2717 21.2031 17.4346 19.3294 18.0813C17.7532 18.6259 16.137 18.5436 14.5259 17.8367C14.1342 17.6648 13.947 17.2152 14.101 16.8161C14.1887 16.5889 14.2345 16.4694 14.2803 16.3498C14.3712 16.1127 14.552 15.6409 14.5756 15.4532C14.4385 15.3308 14.0142 15.1036 13.8008 14.9894C13.1928 14.6641 12.5849 14.3381 11.9772 14.0123C10.3901 13.1613 8.74903 12.2814 7.13073 11.4265C6.84303 11.2746 6.69373 11.2518 6.63963 11.2494C6.61113 11.2919 6.54713 11.4137 6.49953 11.6988C5.86913 15.4726 5.23433 19.3106 4.62043 23.0223C4.23163 25.3726 3.84293 27.7229 3.45273 30.0731C3.39663 30.4107 3.44063 30.4835 3.76613 30.5922C4.29893 30.7694 4.82823 30.9673 5.34003 31.1587C5.61093 31.2601 5.88193 31.3613 6.15383 31.4598C6.87663 31.7211 7.55973 31.9686 7.73263 31.9094C7.90493 31.8511 8.29603 31.2408 8.71003 30.5948C8.83903 30.3935 9.05173 30.2597 9.28913 30.2314C9.52623 30.2032 9.76453 30.2816 9.93733 30.4468C10.1376 30.6383 10.3743 30.8248 10.6249 31.0223C11.2674 31.5286 11.9318 32.0521 12.2172 32.8365C12.7165 34.2084 13.4537 34.8498 14.7617 35.0504C15.1069 35.1033 15.3778 35.3739 15.4311 35.7191C15.6561 37.1768 16.3392 37.943 17.6459 38.2036C18.079 38.2919 18.6085 38.7106 18.7146 39.2344C19.0242 40.7663 19.9143 41.4455 21.5999 41.4233H21.6085C21.9222 41.4233 22.2072 41.6067 22.337 41.8928C23.3158 44.0508 23.7553 44.2591 26.2567 43.7493C26.3371 43.7327 26.4167 43.7253 26.4949 43.7253ZM32.7543 44.2515C32.754 44.2519 32.7537 44.2524 32.7534 44.2529C32.7537 44.2523 32.754 44.2519 32.7543 44.2515ZM32.7846 44.2077C32.7851 44.2077 32.7856 44.2078 32.7862 44.2078C32.7855 44.2078 32.7851 44.2077 32.7846 44.2077ZM37.1881 41.5884C37.1874 41.5885 37.1868 41.5885 37.186 41.5886C37.1867 41.5885 37.1874 41.5885 37.1881 41.5884ZM45.9561 30.922C46.2313 30.922 46.4983 31.0643 46.6466 31.3172C46.7144 31.4327 46.7764 31.5368 46.8347 31.6314C46.9942 31.8893 47.0788 31.9902 47.1181 32.0291C47.2827 32.0155 47.7179 31.8585 47.8892 31.7967C48.2261 31.6753 48.5621 31.5523 48.8981 31.4291C49.6456 31.1552 50.4184 30.872 51.1913 30.6127C51.5586 30.4892 51.6082 30.4064 51.5445 30.0234C51.0624 27.1332 50.5839 24.2418 50.1052 21.3502C49.5842 18.2021 49.0454 14.9467 48.5106 11.746C48.4595 11.4406 48.3947 11.3032 48.3627 11.2506C48.2981 11.2567 48.1359 11.2898 47.8307 11.4518C46.9171 11.9353 45.9908 12.4327 45.0949 12.9137C43.9451 13.5311 42.756 14.1695 41.5792 14.7866C41.1669 15.0033 40.551 15.3268 40.4172 15.4822C40.4231 15.6664 40.6462 16.2107 40.827 16.6517C40.9619 16.9896 40.8446 17.2739 40.8004 17.3809L40.7923 17.4009C40.723 17.6226 40.5607 17.8034 40.3473 17.896C39.8101 18.1292 39.2514 18.2877 38.6864 18.3674C38.6596 18.3716 38.6325 18.3745 38.605 18.376C38.5779 18.3776 38.5513 18.3778 38.5248 18.3765C37.2101 18.3411 35.8463 18.0839 34.3563 17.5907C31.9581 16.7958 29.5479 16.9647 27.1926 18.0927C27.1897 18.0941 27.1867 18.0955 27.1838 18.0969C27.0448 18.1628 26.9083 18.2316 26.7746 18.303C25.5415 18.9553 24.302 19.6483 23.1033 20.3185C22.6589 20.567 22.2144 20.8155 21.7691 21.0627C20.0117 22.0392 20.4 22.8403 20.5657 23.1824C20.7609 23.5863 21.1237 24.3364 23.0196 23.6448C23.7731 23.3699 24.5386 23.0856 25.2789 22.8107C26.4523 22.3749 27.6657 21.9243 28.8682 21.4974C31.5059 20.5613 33.8246 21.0811 35.7603 23.0424C36.6641 23.958 37.5924 24.8825 38.4902 25.7767C39.5041 26.7864 40.5524 27.8306 41.5735 28.8696C42.3682 29.6786 43.1453 30.5134 43.8968 31.3207C44.0174 31.4503 44.1378 31.5796 44.2581 31.7086C44.6986 31.4776 45.143 31.245 45.5863 31.0133C45.7042 30.9514 45.8311 30.922 45.9561 30.922Z" fill="#141C52"/>
<path d="M46.1536 32.8512C45.8365 32.8512 45.5365 32.6615 45.411 32.3493L39.344 17.2533C39.1793 16.8433 39.378 16.3774 39.7879 16.2127C40.1982 16.0479 40.6638 16.2468 40.8285 16.6566L46.8955 31.7526C47.0602 32.1626 46.8615 32.6285 46.4516 32.7932C46.3539 32.8326 46.2528 32.8512 46.1536 32.8512Z" fill="#141C52"/>
<path d="M9.38447 31.8251C9.28727 31.8251 9.18837 31.8072 9.09247 31.7696C8.68117 31.6082 8.47857 31.1439 8.63997 30.7326L14.103 16.8117C14.2644 16.4004 14.7287 16.1978 15.14 16.3592C15.5513 16.5206 15.7539 16.9849 15.5925 17.3962L10.1295 31.3172C10.0057 31.6324 9.70387 31.8251 9.38447 31.8251Z" fill="#141C52"/>
<path d="M40.5546 38.4171C40.3498 38.4171 40.1451 38.339 39.9889 38.1828L33.2031 31.3969C32.8906 31.0844 32.8906 30.5779 33.2031 30.2655C33.5156 29.9531 34.022 29.9533 34.3344 30.2655L41.1202 37.0514C41.4326 37.3639 41.4326 37.8704 41.1202 38.1828C40.964 38.339 40.7593 38.4171 40.5546 38.4171Z" fill="#141C52"/>
<path d="M36.964 41.6589C36.7592 41.6589 36.5545 41.5808 36.3983 41.4246L28.9843 34.0106C28.6719 33.6981 28.6719 33.1917 28.9843 32.8792C29.2968 32.5669 29.8032 32.5669 30.1157 32.8792L37.5297 40.2932C37.8421 40.6057 37.8421 41.1121 37.5297 41.4246C37.3734 41.5808 37.1688 41.6589 36.964 41.6589Z" fill="#141C52"/>
<path d="M32.4717 44.3042C32.2726 44.3042 32.0732 44.2303 31.9181 44.0815L23.9903 36.4784C23.6715 36.1726 23.6609 35.6662 23.9667 35.3473C24.2726 35.0283 24.779 35.0179 25.0979 35.3237L33.0256 42.9268C33.3445 43.2326 33.3551 43.739 33.0492 44.0579C32.8921 44.2218 32.682 44.3042 32.4717 44.3042Z" fill="#141C52"/>
<path d="M26.4167 45.3333C26.212 45.3333 26.0072 45.2552 25.851 45.099C25.5385 44.7865 25.5385 44.2801 25.851 43.9676L27.58 42.2386C27.9041 41.9146 28.078 41.4837 28.0698 41.0254C28.0615 40.5672 27.8722 40.1428 27.5366 39.8306C26.8875 39.2267 25.878 39.2345 25.2383 39.8485L22.1626 42.8006C21.8461 43.1045 21.3441 43.0966 21.0372 42.7833C20.7302 42.47 20.7328 41.9679 21.043 41.6577L23.9297 38.771C24.2639 38.4368 24.4365 37.9926 24.4157 37.5203C24.3948 37.048 24.1837 36.6209 23.8213 36.3174C23.1552 35.7596 22.1896 35.8026 21.5754 36.4166L20.5 37.492C20.498 37.494 20.496 37.496 20.4941 37.498L18.304 39.688C17.9916 40.0004 17.4851 40.0003 17.1727 39.688C16.8602 39.3755 16.8602 38.8691 17.1727 38.5566L19.3665 36.3629C19.6573 36.07 19.8068 35.6819 19.7874 35.2693C19.768 34.855 19.5813 34.4812 19.2619 34.2168C18.6803 33.735 17.8389 33.7746 17.3049 34.3087L15.2065 36.4071C14.8941 36.7194 14.3876 36.7194 14.0752 36.4071C13.7627 36.0947 13.7627 35.5882 14.0752 35.2757L16.1736 33.1773C17.2948 32.056 19.0612 31.9733 20.2824 32.9844C20.8037 33.416 21.164 34.0084 21.3127 34.66C22.4431 34.0994 23.8258 34.2342 24.8486 35.0907C25.5491 35.6772 25.9739 36.5371 26.0143 37.4498C26.0196 37.569 26.0182 37.688 26.0104 37.8061C26.9341 37.6962 27.897 37.9804 28.6267 38.6595C29.2831 39.2702 29.6536 40.1003 29.6697 40.9968C29.6858 41.8933 29.3456 42.7362 28.7116 43.3702L26.9825 45.0992C26.8262 45.2552 26.6214 45.3333 26.4167 45.3333Z" fill="#141C52"/>
</svg>
