<svg width="83" height="83" viewBox="0 0 83 83" fill="none" xmlns="http://www.w3.org/2000/svg">
<path d="M1.72461 27.6582L27.6492 1.7336L81.2573 55.3417L55.3327 81.2663L1.72461 27.6582Z" fill="#28D5CB"/>
<path d="M55.3437 76.0583L4.33453 25.0493L1.72754 27.6563L55.3437 81.2724L81.2721 55.3439L78.6651 52.7369L55.3437 76.0583Z" fill="#28D5CB"/>
<path d="M19.0044 10.3794L22.4745 13.8494C25.3384 10.9855 29.9816 10.9855 32.8455 13.8494L36.2861 10.4087L27.6564 1.72754L19.0044 10.3794Z" fill="#F8E868"/>
<path d="M34.3572 10.1103C30.6605 7.24644 24.667 7.24644 20.9703 10.1103L20.014 9.3695L19.0039 10.3794L22.474 13.8494C25.3379 10.9855 29.9811 10.9855 32.845 13.8494L36.2857 10.4087L35.279 9.39621L34.3572 10.1103Z" fill="#F3F183"/>
<path d="M46.731 72.5647L50.2011 69.0947C53.0649 71.9586 57.7082 71.9586 60.5721 69.0947L64.0127 72.5354L55.383 81.2166L46.731 72.5647Z" fill="#F8E868"/>
<path d="M55.3662 75.9764L49.3428 69.953L46.731 72.5649L55.383 81.2166L64.0125 72.5354L61.3917 69.9146L55.3662 75.9764Z" fill="#F3F183"/>
<path d="M72.6376 64.0125L81.2722 55.3436L72.6081 46.731L69.1675 50.1716C72.0313 53.0355 72.0313 57.6787 69.1675 60.5426L72.6376 64.0125Z" fill="#F8E868"/>
<path d="M81.2724 55.3436L78.6322 52.719L74.7214 56.6452C75.007 53.6556 74.3135 50.5238 72.6376 48.2269L73.2579 47.3768L72.6081 46.731L69.1675 50.1716C72.0313 53.0355 72.0313 57.6787 69.1675 60.5426L72.6374 64.0125L81.2724 55.3436Z" fill="#F3F183"/>
<path d="M10.3621 36.2933L1.72754 27.6243L10.3916 19.0117L13.8323 22.4524C10.9684 25.3162 10.9684 29.9595 13.8323 32.8233L10.3621 36.2933Z" fill="#F8E868"/>
<path d="M10.3623 30.7295L4.51241 24.8564L1.72754 27.6247L10.3621 36.2937L13.8321 32.8237C12.808 31.7996 12.1523 30.5475 11.8605 29.2311L10.3623 30.7295Z" fill="#F3F183"/>
<path d="M54.6389 38.7772C52.7755 28.5227 39.2507 24.3709 31.97 31.97C19.7568 44.8198 38.1266 63.1881 50.9748 50.9738C54.3156 47.662 55.4341 43.1419 54.6389 38.7772Z" fill="#F8E868"/>
<path d="M33.344 30.7295C32.866 31.102 32.4064 31.5144 31.9695 31.9704C19.7563 44.8201 38.1261 63.1885 50.9743 50.9741C51.3953 50.5567 51.781 50.12 52.1322 49.6668C39.7372 59.5149 23.3792 43.1079 33.344 30.7295Z" fill="#F3F183"/>
<path d="M53.6079 55.354L55.3353 53.6266L57.0627 55.354L55.3353 57.0814L53.6079 55.354Z" fill="white"/>
<path d="M57.0625 58.8091L58.7899 57.0817L60.5173 58.8091L58.7899 60.5365L57.0625 58.8091Z" fill="white"/>
<path d="M22.458 24.1982L24.1854 22.4708L25.9128 24.1982L24.1854 25.9257L22.458 24.1982Z" fill="white"/>
<path d="M25.9126 27.6528L27.64 25.9254L29.3674 27.6528L27.64 29.3802L25.9126 27.6528Z" fill="white"/>
<path d="M21.2563 67.9637C19.3501 69.87 16.2593 69.87 14.3531 67.9637L18.673 63.6438L16.0811 66.2357C14.1723 68.1445 11.0774 68.1445 9.16855 66.2357L13.4889 61.9153L10.8989 64.5053C8.99214 66.4121 5.90056 66.4121 3.99365 64.5053L10.3247 58.1743C14.4594 54.0396 21.1632 54.0396 25.2979 58.1743L28.1718 61.0482L21.2563 67.9637Z" fill="#E5ECF5"/>
<path d="M25.5679 58.4433L19.9233 64.088C18.017 65.9943 14.9263 65.9943 13.02 64.088L14.7481 62.3599C12.8392 64.2688 9.74435 64.2688 7.83549 62.3599L12.1559 58.0396L9.56583 60.6296C8.69878 61.4966 7.58676 61.968 6.45258 62.0465L3.99414 64.505C5.90089 66.4117 8.99247 66.4117 10.8992 64.505L9.16904 66.2355C11.0779 68.1444 14.1727 68.1444 16.0816 66.2355L14.3535 67.9636C16.2598 69.8698 19.3506 69.8698 21.2568 67.9636L28.1725 61.0479L25.5679 58.4433Z" fill="#CAD8EB"/>
<path d="M67.9455 14.4087L66.2175 16.1368C68.1263 14.2279 68.1263 11.1331 66.2175 9.22421L61.8971 13.5446L64.4871 10.9546C66.3939 9.04781 66.3939 5.95623 64.4871 4.04932L58.1561 10.3804C56.9222 11.6144 56.0565 13.0771 55.559 14.632C54.4845 18.3709 55.209 22.4504 58.1562 25.3535C58.1561 25.3535 61.03 28.2275 61.03 28.2275L67.9457 21.3118C69.8518 19.4056 69.8518 16.315 67.9455 14.4087Z" fill="#E5ECF5"/>
<path d="M68.1558 15.9234L61.2401 22.8391C61.2401 22.8391 58.3661 19.9651 58.3663 19.9651C56.8492 18.4708 55.9225 16.6644 55.5256 14.7534C54.501 18.4589 55.2405 22.4816 58.1557 25.3532C58.1555 25.3532 61.0295 28.2272 61.0295 28.2272L67.9451 21.3115C69.5694 19.6872 69.8087 17.2034 68.6648 15.3245C68.5136 15.5343 68.3444 15.7348 68.1558 15.9234Z" fill="#CAD8EB"/>
<path d="M27.6563 0L0 27.6561L37.1462 64.8022L38.8738 63.0746L12.1108 36.3116L15.5771 32.8452C12.0298 29.8388 12.0318 25.4788 15.5771 22.4742L12.1072 19.0043L19.0044 12.107L22.4744 15.577C25.4808 12.0298 29.8408 12.0316 32.8452 15.577L36.3116 12.1106L70.9062 46.7052L67.44 50.1716C70.9871 53.1781 70.9852 57.5378 67.44 60.5425L70.8928 63.9954L63.9956 70.8927L60.5425 67.4398C59.2033 68.9626 57.4568 70.1476 55.3572 70.0935C53.2465 70.1432 51.5198 68.968 50.1717 67.4398L46.7053 70.9062L44.0568 68.2576L42.3291 69.9852L55.3437 82.9998L82.9998 55.3435L27.6563 0ZM12.1832 22.5358C9.91717 25.5616 9.91717 29.758 12.1832 32.7838L10.383 34.584L3.45531 27.6563L10.3794 20.7322L12.1832 22.5358ZM32.7838 12.1832C29.7582 9.91733 25.5616 9.91733 22.5358 12.1832L20.732 10.3794L27.6563 3.45531L34.584 10.383L32.7838 12.1832ZM70.8337 60.4813C73.0996 57.4555 73.0996 53.2591 70.8337 50.2333L72.6339 48.4331L79.5447 55.3439L72.6206 62.268L70.8337 60.4813ZM48.4332 72.6339L50.2327 70.8345C53.1392 73.0919 57.5754 73.0919 60.4819 70.8345L62.268 72.6206L55.3439 79.5447L48.4332 72.6339Z" fill="black"/>
<path d="M38.8623 66.5273L40.5897 64.7999L42.3172 66.5275L40.5898 68.2549L38.8623 66.5273Z" fill="black"/>
<path d="M41.4719 56.1318C49.4151 56.2969 56.3923 49.2436 56.1307 41.301L53.6876 41.3293C53.9054 47.9482 48.0913 53.8265 41.4718 53.6885C25.3296 53.2018 25.3322 29.7405 41.4721 29.2557C47.1427 29.1622 52.386 33.4596 53.4416 39.0214L55.8356 38.5337C53.6718 27.2286 39.1409 22.8512 31.1057 31.1064C21.8764 39.9774 28.6873 56.4036 41.4719 56.1318Z" fill="black"/>
<path d="M47.5126 42.3296L49.2405 40.602L46.655 38.0165L48.3828 36.2888L46.655 34.5612L44.9273 36.2888L42.3359 33.6973L37.1527 38.8803L42.3359 44.0633L40.6082 45.7911L35.4263 40.6092L33.6987 42.3368L36.2891 44.9271L34.5614 46.6549L36.2891 48.3826L38.0167 46.6549L40.6082 49.2464L45.7912 44.0633L40.6082 38.8803L42.3359 37.1526L47.5126 42.3296Z" fill="black"/>
<path d="M17.812 53.8515C14.6575 53.8515 11.692 55.08 9.46161 57.3104L2.2666 64.5052C3.82673 66.3006 5.86281 67.467 8.30349 67.0977C9.71392 68.5093 11.649 69.0853 13.4875 68.8255C15.8666 71.2069 19.7404 71.208 22.1206 68.8276L29.9003 61.048C26.4404 57.514 23.2421 53.7008 17.812 53.8515ZM20.3929 67.1C19.2687 68.2241 17.5893 68.4629 16.2294 67.8156L19.5373 64.5077L17.8097 62.7801C15.8459 64.5937 14.1407 67.5032 11.0449 66.0877L14.3534 62.7791L12.6255 61.0516C10.6538 62.8562 8.9982 65.7692 5.86883 64.3585L11.1892 59.0381C14.6754 55.4048 20.9485 55.4048 24.4346 59.0383L26.4446 61.0483L20.3929 67.1Z" fill="black"/>
<path d="M61.0297 29.9553L68.8093 22.1757C71.1884 19.7964 71.1887 15.9252 68.8101 13.5456C69.0829 11.6485 68.4413 9.70427 67.0763 8.35557C67.4446 5.99649 66.3152 3.89526 64.4869 2.32178L57.2921 9.51663C55.9651 10.8435 54.9633 12.4838 54.3952 14.26L56.7223 15.0044C57.1789 13.5772 57.9518 12.3122 59.0197 11.2444L64.3385 5.92531C65.7517 9.01771 62.8387 10.7238 61.0329 12.6807L62.7607 14.4083C63.2956 13.8735 65.5846 11.5841 66.0704 11.0984C67.4855 14.2328 64.5645 15.894 62.7615 17.8645L64.4892 19.5921L67.7969 16.2842C68.4443 17.6442 68.2056 19.3237 67.0812 20.4479L61.0295 26.4998C58.2008 23.911 55.9633 21.2542 56.3022 17.168L53.8656 16.9871C53.3379 22.8876 57.1882 26.2411 61.0297 29.9553Z" fill="black"/>
</svg>
