<svg width="48" height="37" viewBox="0 0 48 37" fill="none" xmlns="http://www.w3.org/2000/svg">
<path d="M18.125 0.875H4.90625C2.4765 0.875 0.5 2.8515 0.5 5.28125V18.5C0.5 20.9298 2.4765 22.9062 4.90625 22.9062H10.835L8.60537 34.3758C8.52146 34.8069 8.63477 35.2522 8.91375 35.5907C9.19272 35.9292 9.60797 36.125 10.0469 36.125H14.8053C16.0825 36.125 17.2178 35.2895 17.6043 34.0796L21.8801 23.9375C21.9044 23.8794 21.9252 23.8199 21.9417 23.7597C22.3333 22.3526 22.5312 20.8975 22.5312 19.4352V5.28125C22.5312 2.8515 20.5548 0.875 18.125 0.875Z" fill="#141C52"/>
<path d="M43.0938 0.875H29.875C27.4452 0.875 25.4688 2.8515 25.4688 5.28125V18.5C25.4688 20.9298 27.4452 22.9062 29.875 22.9062H35.8045L33.5741 34.3758C33.4895 34.8069 33.6028 35.2522 33.8825 35.5907C34.1608 35.9292 34.5767 36.125 35.0156 36.125H39.7747C41.0527 36.125 42.1873 35.2895 42.5731 34.0789L46.8488 23.9375C46.8732 23.8794 46.8933 23.8199 46.9105 23.7597C47.3021 22.3512 47.5 20.896 47.5 19.4352V5.28125C47.5 2.8515 45.5235 0.875 43.0938 0.875Z" fill="#141C52"/>
</svg>
