<svg width="68" height="68" viewBox="0 0 68 68" fill="none" xmlns="http://www.w3.org/2000/svg">
<path d="M25.5 8.5H6.375C2.85961 8.5 0 11.3596 0 14.875V34C0 37.5154 2.85961 40.375 6.375 40.375H14.9528L11.7269 56.9693C11.6055 57.5929 11.7695 58.2372 12.1731 58.727C12.5767 59.2167 13.1775 59.5 13.8125 59.5H20.697C22.5449 59.5 24.1875 58.2912 24.7467 56.5408L30.9329 41.8671C30.9681 41.783 30.9982 41.6969 31.0221 41.6098C31.5886 39.574 31.875 37.4687 31.875 35.353V14.875C31.875 11.3596 29.0154 8.5 25.5 8.5Z" fill="#92A1E4"/>
<path d="M61.625 8.5H42.5C38.9846 8.5 36.125 11.3596 36.125 14.875V34C36.125 37.5154 38.9846 40.375 42.5 40.375H51.0789L47.8519 56.9693C47.7295 57.5929 47.8934 58.2372 48.2981 58.727C48.7007 59.2167 49.3025 59.5 49.9375 59.5H56.823C58.672 59.5 60.3135 58.2912 60.8717 56.5397L67.0578 41.8671C67.0931 41.783 67.1222 41.6969 67.1471 41.6097C67.7136 39.5719 68 37.4666 68 35.353V14.875C68 11.3596 65.1404 8.5 61.625 8.5Z" fill="#92A1E4"/>
</svg>
