<svg width="83" height="83" viewBox="0 0 83 83" fill="none" xmlns="http://www.w3.org/2000/svg">
<path d="M62.2466 16.9699H53.7423L62.753 3.96973C63.5582 2.80708 62.7245 1.21533 61.3106 1.21533H31.0482C30.332 1.21533 29.6877 1.65027 29.4201 2.31492L19.1249 27.8971C18.9073 28.4379 18.9725 29.0513 19.2988 29.5347C19.6251 30.0176 20.17 30.3073 20.7529 30.3073H30.4441L20.5748 50.88C20.0168 52.0434 20.8659 53.3936 22.1571 53.3936H32.1166L24.2208 79.5215C23.9789 80.3218 24.3352 81.1815 25.0722 81.5762C25.8111 81.9719 26.7226 81.79 27.2542 81.1464L60.4799 40.9013C61.4216 39.7617 60.6106 38.0296 59.1268 38.0296H49.3208L63.627 19.8091C64.5276 18.6624 63.7105 16.9699 62.2466 16.9699Z" fill="#F2D422"/>
<path d="M36.3418 1.21533H31.0482C30.332 1.21533 29.6877 1.65027 29.4201 2.31492L19.1249 27.8971C18.9073 28.4379 18.9725 29.0513 19.2988 29.5347C19.6251 30.0176 20.17 30.3073 20.7529 30.3073H30.4441L20.5748 50.88C20.0168 52.0434 20.8659 53.3936 22.1571 53.3936H32.1166L24.2208 79.5215C23.9839 80.3051 24.3218 81.1447 25.0277 81.5498C25.1913 81.3787 24.1597 83.2634 43.2009 47.6378C43.3889 47.2862 43.3784 46.8616 43.1735 46.5199C42.9684 46.178 42.5991 45.9687 42.2003 45.9687H33.1741L45.0867 24.8862C45.2853 24.5348 45.2822 24.1047 45.0789 23.7563C44.8754 23.4078 44.5024 23.1936 44.0989 23.1936H34.7336L44.4139 2.83756C44.5811 2.48611 44.5564 2.07338 44.3484 1.74446C44.1404 1.41537 43.7785 1.21598 43.3892 1.21598H36.3417V1.21533H36.3418Z" fill="#F7AC16"/>
<path d="M62.2473 15.7546H56.0646L63.7531 4.66227C65.1159 2.6941 63.7058 0 61.3112 0H31.049C29.8304 0 28.7488 0.730465 28.2933 1.86134L17.9979 27.4438C17.2134 29.3943 18.6517 31.5228 20.7536 31.5228H28.5134L19.4794 50.3543C18.5332 52.3266 19.9714 54.6091 22.1576 54.6091H30.48L23.058 79.1697C22.6501 80.5192 23.2562 81.982 24.499 82.6476C25.7318 83.3079 27.279 83.0259 28.1923 81.9202L41.6994 65.5595C42.1267 65.042 42.0535 64.2757 41.5358 63.8482C41.0184 63.4209 40.2521 63.494 39.8244 64.0118L26.3175 80.3722C25.9469 80.8206 25.2147 80.4366 25.3849 79.8731L33.2807 53.7453C33.5163 52.9657 32.9322 52.178 32.1173 52.178C21.3026 52.178 21.92 52.2743 21.7011 51.9259C21.6019 51.7682 21.5907 51.5736 21.6714 51.4055L31.541 30.8327C31.9275 30.0269 31.3392 29.0913 30.4451 29.0913H20.7539C20.3716 29.0913 20.1115 28.7041 20.2536 28.3507C31.2492 1.02826 30.5208 2.43115 31.049 2.43115H61.3112C61.7491 2.43115 62.0008 2.92218 61.7546 3.27769L52.7439 16.2779C52.1874 17.0811 52.7621 18.1859 53.743 18.1859H62.2473C62.4554 18.1859 62.6412 18.3025 62.7323 18.4895C62.9432 18.9234 63.7834 17.6424 48.3652 37.2792C47.7398 38.0756 48.3096 39.2454 49.3213 39.2454H59.1273C59.3353 39.2454 59.5267 39.3668 59.6149 39.5539C59.8236 39.9966 60.9076 38.475 42.461 60.8184C42.0337 61.3359 42.107 62.1022 42.6246 62.5296C43.1423 62.9571 43.9085 62.8842 44.336 62.3661L61.4176 41.6759C62.1464 40.7939 62.3024 39.5545 61.8143 38.5177C61.3263 37.4828 60.2715 36.8142 59.1275 36.8142H51.8215L64.5836 20.5603C66.1063 18.6218 64.7223 15.7546 62.2473 15.7546Z" fill="black"/>
</svg>
