<svg width="16" height="16" viewBox="0 0 16 16" fill="none" xmlns="http://www.w3.org/2000/svg">
<path d="M15.6979 12.001C15.6479 11.9177 15.6146 11.8511 15.5479 11.7678C15.5146 11.7344 15.4813 11.6845 15.4646 11.6511L15.3979 11.5845L14.2149 10.4181L13.5984 9.83494L13.4485 9.68498C13.3985 9.63499 13.3651 9.60167 13.2818 9.53502C13.1485 9.41838 12.9986 9.31841 12.8319 9.2351C12.6487 9.15178 12.4487 9.08513 12.2321 9.06847C12.0155 9.05181 11.7989 9.1018 11.6156 9.16845C11.4156 9.2351 11.2657 9.35173 11.0991 9.46837L11.0158 9.53502L10.9158 9.61833L10.7492 9.76829L10.0993 10.3681L9.86605 10.5847C9.63278 10.4514 9.43283 10.3681 9.29953 10.2682C9.08292 10.1182 8.84965 9.95158 8.63304 9.78495C8.19982 9.43504 7.78326 9.06847 7.38336 8.65191C6.66688 7.90211 5.98373 7.08566 5.58383 6.21921C5.63382 6.16923 5.70047 6.11924 5.75046 6.06925C5.96707 5.86931 6.15035 5.66936 6.3503 5.46941L6.65022 5.16949C6.78352 5.03619 6.90016 4.88623 7.00013 4.70294C7.1001 4.51966 7.18342 4.31971 7.21674 4.08644C7.25007 3.86983 7.2334 3.61989 7.18342 3.40328C7.11677 3.18667 7.03346 3.00338 6.91682 2.83676C6.86683 2.75345 6.78352 2.65348 6.73353 2.60349L6.66688 2.5535L6.58357 2.47019L6.00039 1.88701L4.81737 0.703984L4.66741 0.554023C4.60076 0.487374 4.51744 0.420724 4.45079 0.370737C4.28417 0.254101 4.10089 0.154127 3.88428 0.0874777C3.66767 0.0208283 3.43439 -0.0124963 3.21778 0.00416602C3.00117 0.0208283 2.78456 0.0874777 2.60128 0.187452C2.21804 0.370737 1.96811 0.670659 1.80148 0.837282L1.2183 1.42046L0.918381 1.72039L0.83507 1.78704L0.751758 1.88701C0.685109 1.95366 0.635122 2.02031 0.585135 2.08696C0.368524 2.37022 0.201901 2.70346 0.101927 3.05337C0.0519401 3.22 0.0352778 3.41994 0.0186155 3.5699C0.00195312 3.73653 0.00195312 3.88649 0.00195312 4.05311C0.00195312 4.3697 0.0519401 4.68628 0.101927 4.9862C0.135252 5.16949 0.235226 5.41942 0.3352 5.60271C0.435174 5.80266 0.55181 5.96928 0.618459 6.05259C0.751758 6.18589 0.818407 6.1359 0.818407 5.96928C0.83507 5.80266 0.785083 5.50273 0.751758 5.16949C0.701771 4.60297 0.685109 4.00312 0.83507 3.43661C0.901719 3.15335 1.03502 2.90341 1.2183 2.6868C1.30161 2.57016 1.40159 2.48685 1.51823 2.38688C1.63486 2.2869 1.76816 2.17027 1.8848 2.07029C2.11807 1.85368 2.368 1.63707 2.61794 1.42046L2.70125 1.33715L2.75124 1.28717C2.7679 1.2705 2.73457 1.30383 2.73457 1.30383L2.75124 1.28717L2.7679 1.2705C2.83455 1.20385 2.86787 1.18719 2.93452 1.15387C3.0345 1.08722 3.15113 1.05389 3.25111 1.05389C3.46772 1.03723 3.66767 1.10388 3.85095 1.2705C4.08422 1.50378 4.3175 1.75371 4.55077 1.98698L5.58383 3.03671L5.83377 3.30331C5.85043 3.31997 5.91708 3.40328 5.93374 3.41994C5.9504 3.45327 5.98373 3.48659 6.00039 3.51992C6.0837 3.66988 6.11703 3.78651 6.10036 3.90315C6.0837 3.9698 6.06704 4.01979 6.03372 4.08644C6.00039 4.15309 5.9504 4.21974 5.90042 4.28638C5.86709 4.31971 5.83377 4.35303 5.80044 4.38636L5.66714 4.51966L5.40055 4.78625C5.21726 4.95288 5.05064 5.1195 4.88402 5.28612C4.8007 5.36944 4.70073 5.45275 4.61742 5.5194H4.60076L4.56743 5.55272L4.55077 5.56938C4.53411 5.58605 4.50078 5.61937 4.48412 5.6527C4.43413 5.71934 4.38415 5.80266 4.35082 5.91929C4.33416 6.05259 4.33416 6.16923 4.35082 6.25254C4.36748 6.33585 4.38415 6.38584 4.40081 6.41916V6.43582V6.45249C4.63408 7.05233 4.98399 7.60219 5.35056 8.10206L5.48386 8.28534L5.56717 8.38532L5.63382 8.46863C5.71713 8.58527 5.83377 8.7019 5.93374 8.81854C6.13369 9.05181 6.33364 9.28508 6.55025 9.50169C6.98347 9.95158 7.43335 10.3681 7.93322 10.7347C8.18316 10.918 8.43309 11.1013 8.69969 11.2679C9.01627 11.4678 9.29953 11.5678 9.46616 11.6845C9.48282 11.7011 9.49948 11.7011 9.51614 11.7178C9.58279 11.7511 9.6661 11.7844 9.7994 11.8011C9.91604 11.8178 10.0993 11.8178 10.216 11.7511C10.3493 11.7011 10.4326 11.6345 10.4826 11.5845C10.5159 11.5512 10.5325 11.5345 10.5659 11.5178L10.5992 11.4845L10.8991 11.1846L11.5156 10.5681L11.6656 10.4181L11.7322 10.3515L11.7489 10.3348L11.7822 10.3015L11.8155 10.2682L11.8322 10.2515H11.8489C11.8655 10.2348 11.8655 10.2348 11.8822 10.2182C11.9155 10.2015 11.9488 10.1682 11.9822 10.1515C12.1155 10.0849 12.2154 10.0849 12.3321 10.1182C12.4654 10.1515 12.5487 10.2515 12.7986 10.4848L13.4151 11.0846L14.6315 12.2676C14.6481 12.2843 14.6815 12.3176 14.6815 12.3176C14.6815 12.3343 14.6981 12.3343 14.6981 12.351C14.7148 12.3676 14.7315 12.4009 14.7481 12.4176C14.7814 12.4676 14.7981 12.5176 14.8148 12.5676C14.8481 12.6675 14.8314 12.7508 14.7981 12.8342C14.7648 12.9341 14.6981 13.0341 14.6148 13.1341C14.4982 13.2674 14.3482 13.4007 14.2149 13.534C13.9816 13.7506 13.7317 13.9839 13.4818 14.2671V14.3338L13.4318 14.3838L13.3818 14.4337L13.3485 14.4671C13.3152 14.5004 13.2652 14.5337 13.2152 14.567C13.1152 14.6337 13.0152 14.6837 12.9153 14.7337C12.7153 14.817 12.4654 14.867 12.2154 14.8503C12.1821 14.8503 12.1488 14.8503 12.1155 14.8503H12.0821H12.0655H12.0155L11.8989 14.8336L11.7989 14.817C11.6656 14.8003 11.5156 14.767 11.3657 14.7503C10.7991 14.6337 10.216 14.4171 9.64944 14.1671L9.43283 14.0672L9.38284 14.0338V14.0005L9.26621 13.9505C9.11625 13.8839 8.96629 13.8006 8.84965 13.7339C8.58305 13.6006 8.29979 13.434 8.0332 13.2674C6.96681 12.6175 5.98373 11.8344 5.08396 10.9513C4.86735 10.7347 4.65074 10.5014 4.43413 10.2682C4.33416 10.1515 4.21752 10.0349 4.11755 9.91825C4.01757 9.78495 3.9176 9.66832 3.81763 9.55168C3.41773 9.06847 3.05116 8.55194 2.70125 8.03541C2.31802 7.43556 1.98477 6.88571 1.71817 6.48581C1.46824 6.08592 1.26829 5.86931 1.15165 5.96928C1.05168 6.05259 1.03502 6.36918 1.15165 6.85238C1.26829 7.31893 1.50156 7.93543 1.90146 8.61859C2.25137 9.21843 2.65126 9.80161 3.08448 10.3515C3.50104 10.9013 3.96759 11.4345 4.46746 11.9511C5.45053 12.9508 6.58357 13.8339 7.81658 14.5337C8.31645 14.817 8.81632 15.0836 9.34952 15.3002C9.88271 15.5168 10.4159 15.7167 10.9991 15.85C11.2823 15.9167 11.5823 15.9667 11.8822 15.9833C12.1821 16.0167 12.5154 16 12.8486 15.9334C13.1819 15.8667 13.4984 15.7334 13.7817 15.5501C13.9317 15.4501 14.0483 15.3502 14.1816 15.2169C14.2149 15.1835 14.2316 15.1669 14.2482 15.1336L14.2816 15.1002L14.3149 15.0669V15.0502L14.3316 15.0336C14.3649 14.9836 14.4149 14.9336 14.4482 14.9003C14.6148 14.717 14.7981 14.5337 14.998 14.3338C15.098 14.2338 15.198 14.1338 15.298 14.0338L15.3646 13.9505L15.4479 13.8506C15.4979 13.7839 15.5646 13.7173 15.5979 13.6339C15.7978 13.334 15.9145 12.9175 15.8478 12.5342C15.8645 12.351 15.7978 12.1677 15.6979 12.001Z" fill="#141C52"/>
<path d="M15.8647 0.653996C15.8481 0.454048 15.7148 0.270763 15.5148 0.220776L15.4482 0.204114C14.1652 -0.129133 12.8488 0.070815 11.5492 0.00416565C11.4825 0.00416565 11.3992 0.120802 11.3659 0.187451C11.2993 0.354075 11.3826 0.487373 11.4992 0.587347C11.8658 0.920594 12.3157 1.07055 12.7822 1.10388C13.2654 1.1372 13.732 1.18719 14.2152 1.22052C13.9486 1.42046 13.6986 1.63707 13.4654 1.87035C12.9655 2.38688 12.5156 2.93674 12.0491 3.46993C10.8827 4.1031 10.1162 5.18615 9.14981 6.03593C9.09982 6.06925 9.11649 6.21921 9.16647 6.28586C9.23312 6.43582 9.38308 6.48581 9.53304 6.46915C10.0163 6.45249 10.4328 6.25254 10.7827 5.96928C11.5992 5.28612 12.4656 4.61963 13.1488 3.78651C13.2487 3.7032 13.3487 3.61989 13.4487 3.53658C13.9319 3.10336 14.3984 2.67014 14.815 2.17027C14.7817 2.88675 14.7983 3.60323 14.8983 4.31971C14.9316 4.56964 15.0816 4.76959 15.3815 4.75293C15.6481 4.73627 15.8481 4.55298 15.8814 4.30305C15.9314 3.85316 15.998 3.38662 15.998 2.93674C15.9814 2.20359 15.9147 1.47045 15.8814 0.737308L15.8647 0.653996Z" fill="#141C52"/>
</svg>
