<svg width="16" height="16" viewBox="0 0 16 16" fill="none" xmlns="http://www.w3.org/2000/svg">
<g clip-path="url(#clip0_11_100)">
<path d="M15.6979 12.001C15.6479 11.9177 15.6146 11.851 15.5479 11.7677C15.5146 11.7344 15.4813 11.6844 15.4646 11.6511L15.3979 11.5844L14.2149 10.4181L13.5984 9.8349L13.4485 9.68494C13.3985 9.63495 13.3651 9.60162 13.2818 9.53498C13.1485 9.41834 12.9986 9.31837 12.8319 9.23505C12.6487 9.15174 12.4487 9.08509 12.2321 9.06843C12.0155 9.05177 11.7989 9.10176 11.6156 9.1684C11.4156 9.23505 11.2657 9.35169 11.0991 9.46833L11.0158 9.53498L10.9158 9.61829L10.7492 9.76825L10.0993 10.3681L9.86605 10.5847C9.63278 10.4514 9.43283 10.3681 9.29953 10.2681C9.08292 10.1182 8.84965 9.95153 8.63304 9.78491C8.19982 9.435 7.78326 9.06843 7.38336 8.65187C6.66688 7.90207 5.98373 7.08561 5.58383 6.21917C5.63382 6.16919 5.70047 6.1192 5.75046 6.06921C5.96707 5.86926 6.15035 5.66932 6.3503 5.46937L6.65022 5.16945C6.78352 5.03615 6.90016 4.88619 7.00013 4.7029C7.1001 4.51961 7.18342 4.31967 7.21674 4.08639C7.25007 3.86978 7.2334 3.61985 7.18342 3.40324C7.11677 3.18663 7.03346 3.00334 6.91682 2.83672C6.86683 2.75341 6.78352 2.65343 6.73353 2.60345L6.66688 2.55346L6.58357 2.47015L6.00039 1.88697L4.81737 0.703942L4.66741 0.553981C4.60076 0.487332 4.51744 0.420682 4.45079 0.370695C4.28417 0.254059 4.10089 0.154085 3.88428 0.0874357C3.66767 0.0207864 3.43439 -0.0125383 3.21778 0.00412406C3.00117 0.0207864 2.78456 0.0874357 2.60128 0.18741C2.21804 0.370695 1.96811 0.670617 1.80148 0.837241L1.2183 1.42042L0.918381 1.72034L0.83507 1.78699L0.751758 1.88697C0.685109 1.95362 0.635122 2.02027 0.585135 2.08692C0.368524 2.37017 0.201901 2.70342 0.101927 3.05333C0.0519401 3.21995 0.0352778 3.4199 0.0186155 3.56986C0.00195312 3.73649 0.00195312 3.88645 0.00195312 4.05307C0.00195312 4.36965 0.0519401 4.68624 0.101927 4.98616C0.135252 5.16945 0.235226 5.41938 0.3352 5.60267C0.435174 5.80261 0.55181 5.96924 0.618459 6.05255C0.751758 6.18585 0.818407 6.13586 0.818407 5.96924C0.83507 5.80261 0.785083 5.50269 0.751758 5.16945C0.701771 4.60293 0.685109 4.00308 0.83507 3.43656C0.901719 3.1533 1.03502 2.90337 1.2183 2.68676C1.30161 2.57012 1.40159 2.48681 1.51823 2.38684C1.63486 2.28686 1.76816 2.17023 1.8848 2.07025C2.11807 1.85364 2.368 1.63703 2.61794 1.42042L2.70125 1.33711L2.75124 1.28712C2.7679 1.27046 2.73457 1.30379 2.73457 1.30379L2.75124 1.28712L2.7679 1.27046C2.83455 1.20381 2.86787 1.18715 2.93452 1.15382C3.0345 1.08718 3.15113 1.05385 3.25111 1.05385C3.46772 1.03719 3.66767 1.10384 3.85095 1.27046C4.08422 1.50373 4.3175 1.75367 4.55077 1.98694L5.58383 3.03667L5.83377 3.30327C5.85043 3.31993 5.91708 3.40324 5.93374 3.4199C5.9504 3.45323 5.98373 3.48655 6.00039 3.51988C6.0837 3.66984 6.11703 3.78647 6.10036 3.90311C6.0837 3.96976 6.06704 4.01974 6.03372 4.08639C6.00039 4.15304 5.9504 4.21969 5.90042 4.28634C5.86709 4.31967 5.83377 4.35299 5.80044 4.38632L5.66714 4.51961L5.40055 4.78621C5.21726 4.95284 5.05064 5.11946 4.88402 5.28608C4.8007 5.36939 4.70073 5.45271 4.61742 5.51935H4.60076L4.56743 5.55268L4.55077 5.56934C4.53411 5.586 4.50078 5.61933 4.48412 5.65265C4.43413 5.7193 4.38415 5.80261 4.35082 5.91925C4.33416 6.05255 4.33416 6.16919 4.35082 6.2525C4.36748 6.33581 4.38415 6.3858 4.40081 6.41912V6.43578V6.45245C4.63408 7.05229 4.98399 7.60215 5.35056 8.10202L5.48386 8.2853L5.56717 8.38527L5.63382 8.46859C5.71713 8.58522 5.83377 8.70186 5.93374 8.8185C6.13369 9.05177 6.33364 9.28504 6.55025 9.50165C6.98347 9.95153 7.43335 10.3681 7.93322 10.7347C8.18316 10.9179 8.43309 11.1012 8.69969 11.2679C9.01627 11.4678 9.29953 11.5678 9.46616 11.6844C9.48282 11.7011 9.49948 11.7011 9.51614 11.7177C9.58279 11.7511 9.6661 11.7844 9.7994 11.8011C9.91604 11.8177 10.0993 11.8177 10.216 11.7511C10.3493 11.7011 10.4326 11.6344 10.4826 11.5844C10.5159 11.5511 10.5325 11.5345 10.5659 11.5178L10.5992 11.4845L10.8991 11.1845L11.5156 10.568L11.6656 10.4181L11.7322 10.3514L11.7489 10.3348L11.7822 10.3014L11.8155 10.2681L11.8322 10.2515H11.8489C11.8655 10.2348 11.8655 10.2348 11.8822 10.2181C11.9155 10.2015 11.9488 10.1681 11.9822 10.1515C12.1155 10.0848 12.2154 10.0848 12.3321 10.1182C12.4654 10.1515 12.5487 10.2515 12.7986 10.4847L13.4151 11.0846L14.6315 12.2676C14.6481 12.2843 14.6815 12.3176 14.6815 12.3176C14.6815 12.3342 14.6981 12.3342 14.6981 12.3509C14.7148 12.3676 14.7315 12.4009 14.7481 12.4176C14.7814 12.4675 14.7981 12.5175 14.8148 12.5675C14.8481 12.6675 14.8314 12.7508 14.7981 12.8341C14.7648 12.9341 14.6981 13.0341 14.6148 13.134C14.4982 13.2673 14.3482 13.4006 14.2149 13.5339C13.9816 13.7505 13.7317 13.9838 13.4818 14.2671V14.3337L13.4318 14.3837L13.3818 14.4337L13.3485 14.467C13.3152 14.5003 13.2652 14.5337 13.2152 14.567C13.1152 14.6336 13.0152 14.6836 12.9153 14.7336C12.7153 14.8169 12.4654 14.8669 12.2154 14.8503C12.1821 14.8503 12.1488 14.8503 12.1155 14.8503H12.0821H12.0655H12.0155L11.8989 14.8336L11.7989 14.8169C11.6656 14.8003 11.5156 14.7669 11.3657 14.7503C10.7991 14.6336 10.216 14.417 9.64944 14.1671L9.43283 14.0671L9.38284 14.0338V14.0005L9.26621 13.9505C9.11625 13.8838 8.96629 13.8005 8.84965 13.7339C8.58305 13.6006 8.29979 13.434 8.0332 13.2673C6.96681 12.6175 5.98373 11.8344 5.08396 10.9513C4.86735 10.7347 4.65074 10.5014 4.43413 10.2681C4.33416 10.1515 4.21752 10.0348 4.11755 9.91821C4.01757 9.78491 3.9176 9.66827 3.81763 9.55164C3.41773 9.06843 3.05116 8.5519 2.70125 8.03537C2.31802 7.43552 1.98477 6.88567 1.71817 6.48577C1.46824 6.08587 1.26829 5.86926 1.15165 5.96924C1.05168 6.05255 1.03502 6.36913 1.15165 6.85234C1.26829 7.31889 1.50156 7.93539 1.90146 8.61855C2.25137 9.21839 2.65126 9.80157 3.08448 10.3514C3.50104 10.9013 3.96759 11.4345 4.46746 11.951C5.45053 12.9508 6.58357 13.8339 7.81658 14.5337C8.31645 14.8169 8.81632 15.0835 9.34952 15.3001C9.88271 15.5168 10.4159 15.7167 10.9991 15.85C11.2823 15.9166 11.5823 15.9666 11.8822 15.9833C12.1821 16.0166 12.5154 16 12.8486 15.9333C13.1819 15.8667 13.4984 15.7334 13.7817 15.5501C13.9317 15.4501 14.0483 15.3501 14.1816 15.2168C14.2149 15.1835 14.2316 15.1668 14.2482 15.1335L14.2816 15.1002L14.3149 15.0669V15.0502L14.3316 15.0335C14.3649 14.9836 14.4149 14.9336 14.4482 14.9002C14.6148 14.717 14.7981 14.5337 14.998 14.3337C15.098 14.2338 15.198 14.1338 15.298 14.0338L15.3646 13.9505L15.4479 13.8505C15.4979 13.7839 15.5646 13.7172 15.5979 13.6339C15.7978 13.334 15.9145 12.9174 15.8478 12.5342C15.8645 12.3509 15.7978 12.1676 15.6979 12.001Z" fill="white"/>
<path d="M15.8647 0.653981C15.8481 0.454033 15.7148 0.270748 15.5148 0.220761L15.4482 0.204098C14.1652 -0.129148 12.8488 0.0707997 11.5492 0.00415039C11.4825 0.00415039 11.3992 0.120787 11.3659 0.187436C11.2993 0.354059 11.3826 0.487358 11.4992 0.587332C11.8658 0.920578 12.3157 1.07054 12.7822 1.10386C13.2654 1.13719 13.732 1.18718 14.2152 1.2205C13.9486 1.42045 13.6986 1.63706 13.4654 1.87033C12.9655 2.38686 12.5156 2.93672 12.0491 3.46991C10.8827 4.10308 10.1162 5.18613 9.14981 6.03591C9.09982 6.06924 9.11649 6.2192 9.16647 6.28585C9.23312 6.43581 9.38308 6.4858 9.53304 6.46913C10.0163 6.45247 10.4328 6.25252 10.7827 5.96926C11.5992 5.28611 12.4656 4.61962 13.1488 3.7865C13.2487 3.70319 13.3487 3.61988 13.4487 3.53656C13.9319 3.10334 14.3984 2.67012 14.815 2.17025C14.7817 2.88673 14.7983 3.60321 14.8983 4.31969C14.9316 4.56963 15.0816 4.76958 15.3815 4.75291C15.6481 4.73625 15.8481 4.55297 15.8814 4.30303C15.9314 3.85315 15.998 3.3866 15.998 2.93672C15.9814 2.20358 15.9147 1.47044 15.8814 0.737293L15.8647 0.653981Z" fill="white"/>
</g>
<defs>
<clipPath id="clip0_11_100">
<rect width="16" height="16" fill="white"/>
</clipPath>
</defs>
</svg>
